inDegrees=yes
name=ik_orientation_Tpose_Zug
DataType=double
version=3
OpenSimVersion=4.3-2021-08-27-4bc7ad9
endheader
time	pelvis_tilt	pelvis_list	pelvis_rotation	pelvis_tx	pelvis_ty	pelvis_tz	hip_flexion_r	hip_adduction_r	hip_rotation_r	knee_angle_r	knee_angle_r_beta	ankle_angle_r	subtalar_angle_r	mtp_angle_r	hip_flexion_l	hip_adduction_l	hip_rotation_l	knee_angle_l	knee_angle_l_beta	ankle_angle_l	subtalar_angle_l	mtp_angle_l	lumbar_extension	lumbar_bending	lumbar_rotation	arm_flex_r	arm_add_r	arm_rot_r	elbow_flex_r	pro_sup_r	wrist_flex_r	wrist_dev_r	arm_flex_l	arm_add_l	arm_rot_l	elbow_flex_l	pro_sup_l	wrist_flex_l	wrist_dev_l
12.5	-3.562002686321597	0.2341495845010382	145.9253028143317	0	0.9399999999999999	0	45.00384007024061	-9.999977544498831	0	60.04315159602475	1.04795068862472	-4.999999349045471	0	0	45.00384007024061	-9.999977544498831	0	60.04315159602475	1.04795068862472	-4.999999349045471	0	0	-36.4112382906082	-1.424445790680869	-1.233104782912041	-89.99646514478414	-2.388005084441279	-58.87646788507532	149.9865287065718	44.9993860128878	0	0	0	-14.96057158447897	0	75.00510467591421	44.9993860128878	0	0
12.51	-3.594120970447509	0.2788282388370458	145.9176523229405	0	0.9399999999999999	0	45.00374474383653	-9.999979124313805	0	60.04225445013533	1.047935030475079	-4.999999392153825	0	0	45.00374474383653	-9.999979124313805	0	60.04225445013533	1.047935030475079	-4.999999392153825	0	0	-34.80337168241351	-2.250259440734289	-1.428720948743254	-89.99628207483009	-4.009210632671768	-53.94115067733544	149.9835295803546	44.99942204304002	0	0	0	-14.96110284276934	0	75.00498231872248	44.99942204304002	0	0
12.52	-3.602290343419749	0.2845671035904987	145.8885761046444	0	0.9399999999999999	0	45.00364809230031	-9.999980536508856	0	60.04132778378172	1.047918857096141	-4.999999429256789	0	0	45.00364809230031	-9.999980536508856	0	60.04132778378172	1.047918857096141	-4.999999429256789	0	0	-31.55049312584207	-3.271328988112692	-1.571042144382544	-89.99585828844701	-6.415739382882431	-48.17425151672702	149.9716241387664	44.99945523153452	0	0	0	-14.96166268601749	0	75.0048582606032	44.99945523153452	0	0
12.53	-3.599167905188299	0.301556118641559	145.8981631339994	0	0.9399999999999999	0	45.00355781510329	-9.999981863038395	0	60.0404660505858	1.047903817014598	-4.999999464162225	0	0	45.00355781510329	-9.999981863038395	0	60.0404660505858	1.047903817014598	-4.999999464162225	0	0	-30.83459716225546	-2.58903254716067	-1.396872541145489	-89.99575220686209	-5.176172835704173	-43.47442738591694	149.9714788486535	44.99948637919639	0	0	0	-14.96218210650492	0	75.00474238433982	44.99948637919639	0	0
12.54	-3.599303425385846	0.3251520596016634	145.8917455546858	0	0.9399999999999999	0	45.00346390065297	-9.999983191665399	0	60.03956720043703	1.04788812912002	-4.999999498621719	0	0	45.00346390065297	-9.999983191665399	0	60.03956720043703	1.04788812912002	-4.999999498621719	0	0	-30.09904949100832	-2.605009474480721	-1.379869681810896	-89.99563740918414	-5.345226762193649	-37.9029366896151	149.9711571847385	44.99951790094038	0	0	0	-14.96272714209121	0	75.00462183943142	44.99951790094038	0	0
12.55	-3.61168031348295	0.3547903913472248	145.8870972513822	0	0.9399999999999999	0	45.00336973112082	-9.99998440622204	0	60.03865838147376	1.047872267236807	-4.999999529249813	0	0	45.00336973112082	-9.99998440622204	0	60.03865838147376	1.047872267236807	-4.999999529249813	0	0	-30.0504279058625	-1.820381237382711	-1.178605444304753	-89.99562744557555	-3.694714982269956	-32.6152851593288	149.9736762291019	44.99954736574488	0	0	0	-14.96328812976792	0	75.00450096708217	44.99954736574488	0	0
12.56	-3.641520285065839	0.3661721586890824	145.8869351392183	0	0.9399999999999999	0	45.00328277127692	-9.999985468012399	0	60.03780821721305	1.047857429071275	-4.999999555530078	0	0	45.00328277127692	-9.999985468012399	0	60.03780821721305	1.047857429071275	-4.999999555530078	0	0	-27.02298321457888	-2.280682637431023	-1.247898025497762	-89.99507084995231	-5.167863173351805	-26.44462804933216	149.9392304655582	44.99957348040537	0	0	0	-14.96381571477088	0	75.00438934879234	44.99957348040537	0	0
12.57	-3.662691513087419	0.3762897054943147	145.8780043926554	0	0.9399999999999999	0	45.00320510520066	-9.999986411748932	0	60.03705485002512	1.047844280333369	-4.999999578795551	0	0	45.00320510520066	-9.999986411748932	0	60.03705485002512	1.047844280333369	-4.999999578795551	0	0	-26.94038131691072	-1.740478429591229	-1.130430806854932	-89.99504895071087	-3.86333575654087	-21.28546450766961	149.9391288539599	44.99959675193941	0	0	0	-14.96428452426414	0	75.004289659625	44.99959675193941	0	0
12.58	-3.671086367682799	0.3988247080714643	145.896967892252	0	0.9399999999999999	0	45.00312048735024	-9.999987382335712	0	60.03623458760945	1.047829964053485	-4.999999602213676	0	0	45.00312048735024	-9.999987382335712	0	60.03623458760945	1.047829964053485	-4.999999602213676	0	0	-28.91755964872562	-2.18402057625333	-1.298563171179124	-89.99541789268895	-4.734757083009226	-14.95339315321488	149.9720636376168	44.99962106260554	0	0	0	-14.96480215267399	0	75.00418104741627	44.99962106260554	0	0
12.59	-3.675655209222504	0.4223841138424853	145.8965103525169	0	0.9399999999999999	0	45.0030410124913	-9.999988353813542	0	60.03548973732343	1.04781696396356	-4.999999625989722	0	0	45.0030410124913	-9.999988353813542	0	60.03548973732343	1.04781696396356	-4.999999625989722	0	0	-29.10749307012681	-1.6600215181066	-1.159069668870166	-89.99544999294078	-3.579369024649674	-11.71751473338018	149.9709441796542	44.99964507430109	0	0	0	-14.96527727343503	0	75.00407903657202	44.99964507430109	0	0
12.6	-3.69027007205713	0.4340500564111364	145.8834072215286	0	0.9399999999999999	0	45.00287430311359	-9.999990114558756	0	60.03393623767169	1.047789850279708	-4.999999666865619	0	0	45.00287430311359	-9.999990114558756	0	60.03393623767169	1.047789850279708	-4.999999666865619	0	0	-28.66467645221974	-1.498268014785234	-1.111459418876116	-89.99537025264424	-3.250098681907108	-9.359480022122311	149.9660595031114	44.99969033436117	0	0	0	-14.96630652157237	0	75.00386505481993	44.99969033436117	0	0
12.61	-3.695101286383052	0.4542192053296949	145.8651363384868	0	0.9399999999999999	0	45.00274133123396	-9.999991426944597	0	60.03269427674626	1.047768173972378	-4.999999696607704	0	0	45.00274133123396	-9.999991426944597	0	60.03269427674626	1.047768173972378	-4.999999696607704	0	0	-27.75836099127436	-1.366746302013712	-1.049678852931912	-89.99519926772587	-3.059957688497787	-7.727133426675337	149.9525790302654	44.99972468431331	0	0	0	-14.96713960226414	0	75.00369437720001	44.99972468431331	0	0
12.62	-3.681167559691243	0.462689817767001	145.8420318792793	0	0.9399999999999999	0	45.0027406118998	-9.999991434795529	0	60.03268757234592	1.047768056958518	-4.99999969679244	0	0	45.0027406118998	-9.999991434795529	0	60.03268757234592	1.047768056958518	-4.99999969679244	0	0	-27.42021128539629	-1.301174848146891	-1.007280633503727	-89.99513536671201	-2.981818987324459	-7.016697331405081	149.9425058121161	44.99972488419707	0	0	0	-14.96714401640009	0	75.00369345389036	44.99972488419707	0	0
12.63	-3.701614709870245	0.4582536492900547	145.8328743913993	0	0.9399999999999999	0	45.00273951615802	-9.999991446767455	0	60.03267737486846	1.047767878978961	-4.999999697074156	0	0	45.00273951615802	-9.999991446767455	0	60.03267737486846	1.047767878978961	-4.999999697074156	0	0	-27.0550850768844	-0.9352128977371602	-0.9360142860260925	-89.99506376746905	-2.082876912216695	-7.692936123529764	149.9135441228449	44.99972518897393	0	0	0	-14.96715073398418	0	75.00369204743842	44.99972518897393	0	0
12.64	-3.689219854925964	0.458828984755248	145.8331162500504	0	0.9399999999999999	0	45.00273897940139	-9.999991452594797	0	60.03267235582427	1.047767791380114	-4.999999697211094	0	0	45.00273897940139	-9.999991452594797	0	60.03267235582427	1.047767791380114	-4.999999697211094	0	0	-27.18742946644577	-0.8450110547646759	-0.9238974546732761	-89.99509583173192	-1.84469430119583	-7.968929227463661	149.9125751535977	44.99972533749963	0	0	0	-14.96715403609799	0	75.00369135847826	44.99972533749963	0	0
12.65	-3.701435226273036	0.4815150263991423	145.8265699645509	0	0.9399999999999999	0	45.00273830926901	-9.999991459889602	0	60.03266610622271	1.04776768230399	-4.999999697382572	0	0	45.00273830926901	-9.999991459889602	0	60.03266610622271	1.04776768230399	-4.999999697382572	0	0	-27.51536623980336	-0.8254417554086226	-0.9095436808451256	-89.99515611459499	-1.837338916081897	-8.322131145633922	149.9224727176992	44.99972552335546	0	0	0	-14.96715815125568	0	75.00369049832213	44.99972552335546	0	0
12.66	-3.702307109591133	0.5038435861503165	145.8068226074751	0	0.9399999999999999	0	45.00273745777402	-9.999991469177182	0	60.03265818252704	1.047767544009412	-4.999999697600947	0	0	45.00273745777402	-9.999991469177182	0	60.03265818252704	1.047767544009412	-4.999999697600947	0	0	-28.26150961541199	-1.06908148310735	-0.9491511760441219	-89.99529434470482	-2.425817864719783	-8.627585931510136	149.9472152896415	44.99972575992148	0	0	0	-14.96716337249096	0	75.00368940537598	44.99972575992148	0	0
12.67	-3.712877756632619	0.5207724753025643	145.797107616215	0	0.9399999999999999	0	45.00273674661434	-9.999991476924217	0	60.03265156124469	1.047767428446234	-4.999999697783023	0	0	45.00273674661434	-9.999991476924217	0	60.03265156124469	1.047767428446234	-4.999999697783023	0	0	-29.0383960421775	-1.478033523426401	-1.022492210357909	-89.9954318914008	-3.298969255983674	-9.48252919487463	149.9594340914799	44.99972595730795	0	0	0	-14.96716773526562	0	75.00368849255878	44.99972595730795	0	0
12.68	-3.738271313694563	0.517004828687442	145.8066852067757	0	0.9399999999999999	0	45.0026588538386	-9.999992188877107	0	60.03192131012672	1.047754683159859	-4.999999713485668	0	0	45.0026588538386	-9.999992188877107	0	60.03192131012672	1.047754683159859	-4.999999713485668	0	0	-29.53504410782348	-1.602086134497243	-1.114479270956126	-89.99551150968195	-3.493828021252304	-11.45254379423967	149.959536270097	44.99974497570278	0	0	0	-14.96766403258304	0	75.00358851235431	44.99974497570278	0	0
12.69	-3.738816766202241	0.5257294829950939	145.814504395654	0	0.9399999999999999	0	45.00253295798043	-9.999993200044601	0	60.03070879356034	1.047733520753541	-4.999999734873573	0	0	45.00253295798043	-9.999993200044601	0	60.03070879356034	1.047733520753541	-4.999999734873573	0	0	-29.65139828478867	-1.893906061751761	-1.173760553794826	-89.99553001211807	-4.136186323157133	-14.49403509476174	149.9542969586604	44.99977287430792	0	0	0	-14.96849559288809	0	75.00342691716864	44.99977287430792	0	0
12.7	-3.743581171878297	0.5287758908926594	145.8083259153281	0	0.9399999999999999	0	45.00244415783103	-9.99999388009315	0	60.02985027064228	1.047718536701917	-4.999999749032224	0	0	45.00244415783103	-9.99999388009315	0	60.02985027064228	1.047718536701917	-4.999999749032224	0	0	-30.54974198249163	-2.321202614141403	-1.307031987097671	-89.99567019952111	-4.955574060910166	-16.80837166154615	149.9616924231582	44.9997918665095	0	0	0	-14.9690890410341	0	75.00331293662644	44.9997918665095	0	0
12.71	-3.725627028947435	0.5318696614286089	145.7953065050425	0	0.9399999999999999	0	45.00236518791915	-9.999994415507334	0	60.02907088985944	1.04770493394113	-4.999999759789111	0	0	45.00236518791915	-9.999994415507334	0	60.02907088985944	1.04770493394113	-4.999999759789111	0	0	-31.97199743163758	-2.965562385183978	-1.488460027437106	-89.99588228750302	-6.094316314453015	-19.63479274040306	149.9714291874552	44.99980726053463	0	0	0	-14.96963525432486	0	75.00321157377788	44.99980726053463	0	0
12.72	-3.719566958294223	0.5447933657672976	145.789844441998	0	0.9399999999999999	0	45.00228736481677	-9.99999490909603	0	60.02829593950676	1.047691408505936	-4.999999769515756	0	0	45.00228736481677	-9.99999490909603	0	60.02829593950676	1.047691408505936	-4.999999769515756	0	0	-34.20739344569441	-3.124452625701844	-1.586980865014695	-89.99617574971718	-6.068716889189474	-23.55742301567326	149.9784403779534	44.99982167480855	0	0	0	-14.97018425938694	0	75.00311168291418	44.99982167480855	0	0
12.73	-3.72335528018254	0.5535138196813232	145.7688594123137	0	0.9399999999999999	0	45.00217706238504	-9.999995517234405	0	60.02718339398694	1.047671990923537	-4.999999780979951	0	0	45.00217706238504	-9.999995517234405	0	60.02718339398694	1.047671990923537	-4.999999780979951	0	0	-35.29104122733943	-3.280977175112485	-1.63518430733378	-89.99630299887488	-6.174390873145192	-28.24676214009336	149.9794529317661	44.99984006328591	0	0	0	-14.97099096499335	0	75.00297010273485	44.99984006328591	0	0
